<?xml version="1.0" encoding="UTF-8"?>
<svg id="Layer_1" xmlns="http://www.w3.org/2000/svg" version="1.1" viewBox="0 0 566.93 566.93">
  <!-- Generator: Adobe Illustrator 30.1.0, SVG Export Plug-In . SVG Version: 2.1.1 Build 136)  -->
  <defs>
    <style>
      .st0 {
        fill: #009444;
      }

      .st0, .st1 {
        stroke: #231f20;
        stroke-miterlimit: 10;
        stroke-width: 4px;
      }

      .st1 {
        fill: #ed1c24;
      }
    </style>
  </defs>
  <path class="st0" d="M110.49,186.42c0,92.29,99.65,167.11,222.58,167.11,23.67,0,46.49-2.77,67.89-7.91l135.08,68.88-55.18-103.13c45.89-30.61,74.79-75.25,74.79-124.95,0-92.28-99.65-167.11-222.58-167.11-122.93,0-222.58,74.83-222.58,167.11Z"/>
  <path class="st1" d="M432.9,352.88c0,75.1-94.64,135.97-211.39,135.97-22.48,0-44.15-2.26-64.47-6.44l-128.29,56.05,52.4-83.92c-43.58-24.91-71.03-61.23-71.03-101.67,0-75.09,94.64-135.97,211.39-135.97s211.39,60.89,211.39,135.97Z"/>
</svg>